<?xml version="1.0" encoding="UTF-8" standalone="no"?>
<!-- Created with Inkscape (http://www.inkscape.org/) -->

<svg
   width="1000"
   height="1000"
   viewBox="0 0 264.58324 264.58333"
   version="1.1"
   id="svg1"
   inkscape:version="1.3.2 (091e20ef0f, 2023-11-25)"
   sodipodi:docname="Grain-tan.svg"
   inkscape:export-filename="Grain-tan.png"
   inkscape:export-xdpi="96"
   inkscape:export-ydpi="96"
   xml:space="preserve"
   xmlns:inkscape="http://www.inkscape.org/namespaces/inkscape"
   xmlns:sodipodi="http://sodipodi.sourceforge.net/DTD/sodipodi-0.dtd"
   xmlns:xlink="http://www.w3.org/1999/xlink"
   xmlns="http://www.w3.org/2000/svg"
   xmlns:svg="http://www.w3.org/2000/svg"><sodipodi:namedview
     id="namedview1"
     pagecolor="#ffffff"
     bordercolor="#000000"
     borderopacity="0.3254902"
     inkscape:showpageshadow="2"
     inkscape:pageopacity="0.0"
     inkscape:pagecheckerboard="0"
     inkscape:deskcolor="#2b2b2b"
     inkscape:document-units="mm"
     inkscape:zoom="0.72248176"
     inkscape:cx="428.38452"
     inkscape:cy="465.7557"
     inkscape:window-width="1920"
     inkscape:window-height="1004"
     inkscape:window-x="0"
     inkscape:window-y="0"
     inkscape:window-maximized="1"
     inkscape:current-layer="layer10"
     inkscape:export-bgcolor="#ffffffff"
     showguides="false" /><defs
     id="defs1"><linearGradient
       id="swatch1"
       inkscape:swatch="solid"><stop
         style="stop-color:#ffb333;stop-opacity:1;"
         offset="0"
         id="stop1" /></linearGradient></defs><g
     inkscape:groupmode="layer"
     id="layer3"
     inkscape:label="bg"
     style="display:none;fill:#ffa714;fill-opacity:1"><rect
       style="fill:#000000;fill-opacity:1;stroke-width:0.267204"
       id="rect1"
       width="316.95822"
       height="316.95822"
       x="-31.074333"
       y="-23.823656" /></g><g
     inkscape:groupmode="layer"
     id="layer8"
     inkscape:label="hair"><path
       style="fill:#95c095;fill-opacity:1;stroke:none;stroke-width:0.79375;stroke-linecap:butt;stroke-linejoin:miter;stroke-dasharray:none;stroke-opacity:1"
       d="m 45.713984,179.22113 c 0,0 5.034334,-142.111608 129.533346,-157.958472 -4.18768,-7.002505 -24.38534,-11.178745 -36.0858,-6.247861 -60.811767,18.317721 -83.925121,53.24445 -92.104197,82.548168 -7.546712,27.038105 -1.343349,81.658165 -1.343349,81.658165 z"
       id="path25"
       sodipodi:nodetypes="cccsc" /></g><g
     inkscape:groupmode="layer"
     id="layer2"
     inkscape:label="motion parts"
     inkscape:highlight-color="#a05a2c"
     style="display:inline"><path
       style="display:inline;fill:#a45928;fill-opacity:1;stroke-width:0.360488"
       d="M 70.917389,228.54668 C 25.284114,209.81515 0.21021374,168.73461 19.258232,108.55447 46.086453,23.793628 139.98623,15.057915 139.98623,15.057915 c 0,0 -67.379168,20.153329 -90.321376,98.245475 -8.466235,28.81791 -10.022105,85.59598 21.252535,115.24329 z"
       id="path3"
       sodipodi:nodetypes="cscsc" /><path
       style="display:inline;fill:#79421e;fill-opacity:1;stroke-width:0.289822"
       d="M 80.856549,76.180959 C 104.25456,40.170029 147.48638,14.198305 187.63944,22.540766 c 45.85086,9.526274 44.39398,55.268609 44.39398,55.268609 0,0 -16.56182,-26.97298 -60.24927,-34.577864 -32.28816,-5.620555 -60.72918,3.706114 -90.927601,32.949448 z"
       id="path5"
       sodipodi:nodetypes="cscsc" /></g><g
     inkscape:groupmode="layer"
     id="layer9"
     inkscape:label="knot"><path
       style="fill:#d0efd0;fill-opacity:1;stroke:none;stroke-width:0.79375;stroke-linecap:butt;stroke-linejoin:miter;stroke-dasharray:none;stroke-opacity:1"
       d="m 55.415896,96.848344 c 0,0 -28.155397,24.911516 -33.0755,47.181456 -4.920103,22.26994 8.19763,31.9553 3.669767,71.85112 9.754505,-19.79714 22.304533,-28.25423 27.763159,-44.90925 6.08158,-18.55574 12.259639,-69.46218 12.259639,-69.46218 l -1.812668,-8.027532 z"
       id="path27"
       sodipodi:nodetypes="cscsccc" /><path
       id="path33"
       style="fill:#5b915b;fill-opacity:1;stroke:none;stroke-width:0.544264;stroke-linecap:butt;stroke-linejoin:miter;stroke-dasharray:none;stroke-opacity:1"
       d="m 113.80839,32.612433 c 0,0 29.27124,-16.106876 60.41458,-12.785354 0.29658,0.397536 0.59842,0.754075 0.87268,1.221757 -30.14412,-0.44188 -59.6132,8.661639 -68.92638,17.907941 z"
       sodipodi:nodetypes="ccccc" /><path
       id="path32"
       style="fill:#417841;fill-opacity:1;stroke:none;stroke-width:0.79375;stroke-linecap:butt;stroke-linejoin:miter;stroke-dasharray:none;stroke-opacity:1"
       d="m 139.26558,15.233348 c 0,0 -50.158416,26.0112 -67.661165,63.048695 0.428875,0.185239 1.244014,0.811562 2.015828,0.842808 21.054852,-34.05943 46.946007,-52.547989 65.645337,-63.891503 z"
       sodipodi:nodetypes="cccc" /><path
       style="fill:#d0efd0;fill-opacity:1;stroke:none;stroke-width:0.547062;stroke-linecap:butt;stroke-linejoin:miter;stroke-dasharray:none;stroke-opacity:1"
       d="m 63.593621,80.725757 c 0,0 -0.421809,-32.885203 3.901171,-41.389942 C 70.572835,32.860512 86.518419,26.881542 100.35438,5.4339918 97.715381,24.175339 98.296874,43.32572 92.448292,55.045778 87.660228,61.53375 76.40731,83.908155 76.40731,83.908155 L 70.299153,83.27134 Z"
       id="path28"
       sodipodi:nodetypes="ccccccc" /><path
       style="fill:#a9e1a9;fill-opacity:1;stroke:none;stroke-width:0.79375;stroke-linecap:butt;stroke-linejoin:miter;stroke-dasharray:none;stroke-opacity:1"
       d="m 47.647315,146.30834 c 4.673286,-13.30789 -1.189794,-20.0219 13.871072,-49.595463 -16.515515,18.951533 -22.499593,31.311143 -23.196952,40.069273 -1.145614,14.38776 5.996829,19.00617 9.32588,9.52619 z"
       id="path29"
       sodipodi:nodetypes="scss" /><path
       style="fill:#a9e1a9;fill-opacity:1;stroke:none;stroke-width:0.79375;stroke-linecap:butt;stroke-linejoin:miter;stroke-dasharray:none;stroke-opacity:1"
       d="m 87.254016,49.262577 c -5.075038,13.459177 -9.69698,10.826966 -17.626929,37.590588 6.6285,-27.339092 1.319102,-32.713871 5.104122,-40.642601 4.040902,-8.464745 15.009847,-3.543704 12.522807,3.052013 z"
       id="path30"
       sodipodi:nodetypes="scss" /><path
       style="fill:#dfeddf;fill-opacity:1;stroke:none;stroke-width:0.79375;stroke-linecap:butt;stroke-linejoin:miter;stroke-dasharray:none;stroke-opacity:1"
       d="m 54.932182,98.145498 c 4.389087,-1.197312 9.146742,0.629996 10.620222,4.028362 5.318733,-1.91175 13.439825,-14.100324 11.169544,-19.592479 -2.270281,-5.492155 -7.074712,-5.475667 -12.634402,-3.479038 -5.55969,1.996629 -11.164057,14.01482 -9.155364,19.043155 z"
       id="path26"
       sodipodi:nodetypes="cczzc" /><path
       style="fill:#a1dea1;fill-opacity:1;stroke:none;stroke-width:0.79375;stroke-linecap:butt;stroke-linejoin:miter;stroke-dasharray:none;stroke-opacity:1"
       d="m 63.538224,79.468556 c 0,0 -3.524816,10.940662 4.348798,21.377774 1.272895,-0.7737 1.55641,-1.464858 1.55641,-1.464858 0,0 -6.820743,-5.264334 -5.905208,-19.912916 z"
       id="path31"
       sodipodi:nodetypes="cccc" /></g><g
     inkscape:groupmode="layer"
     id="layer4"
     inkscape:label="mouth"
     inkscape:highlight-color="#a05a2c"><path
       style="fill:#c8b79b;fill-opacity:0.695652;stroke:none;stroke-width:0.79375;stroke-linecap:butt;stroke-linejoin:miter;stroke-dasharray:none;stroke-opacity:1"
       d="m 200.76246,112.13043 c 0,0 -1.18925,-10.13601 -5.30455,-5.84304 -2.80352,2.92457 4.20668,4.2876 4.52701,7.04139 0.47632,-0.57515 0.77754,-1.19835 0.77754,-1.19835 z"
       id="path18"
       sodipodi:nodetypes="cscc" /><path
       style="fill:#c8b79b;fill-opacity:0.695652;stroke:none;stroke-width:0.79375;stroke-linecap:butt;stroke-linejoin:miter;stroke-dasharray:none;stroke-opacity:1"
       d="m 103.30568,157.59948 c 0,0 -21.847534,-5.95215 1.02039,-15.17502 -8.671547,10.12614 5.47625,16.88953 5.47625,16.88953 z"
       id="path17"
       sodipodi:nodetypes="cccc" /><path
       style="display:inline;fill:#f7eae2;fill-opacity:1;stroke:#a05a2c;stroke-width:0.79375;stroke-linecap:round;stroke-linejoin:miter;stroke-dasharray:none;stroke-opacity:1"
       d="m 103.30722,157.16853 c 25.75921,5.63639 42.70646,-10.7903 61.04638,-22.10982 17.6831,-10.91412 36.40735,-13.12486 36.05748,-22.90548 6.10782,16.40339 -60.38817,58.17109 -97.10386,45.0153 z"
       id="path1"
       sodipodi:nodetypes="cscc" /><path
       style="fill:#f7eae2;fill-opacity:1;stroke:#e2b597;stroke-width:0.79375;stroke-linecap:butt;stroke-linejoin:miter;stroke-dasharray:none;stroke-opacity:1"
       d="m 177.2372,133.6927 2.8556,4.29343 z"
       id="path7"
       sodipodi:nodetypes="ccc" /><path
       style="fill:#f7eae2;fill-opacity:1;stroke:#e2b597;stroke-width:0.79375;stroke-linecap:butt;stroke-linejoin:miter;stroke-dasharray:none;stroke-opacity:1"
       d="m 184.15113,127.24217 2.09499,3.06177 z"
       id="path8"
       sodipodi:nodetypes="ccc" /><path
       style="fill:#f7eae2;fill-opacity:1;stroke:#e2b597;stroke-width:0.79375;stroke-linecap:butt;stroke-linejoin:miter;stroke-dasharray:none;stroke-opacity:1"
       d="m 190.48063,122.9848 1.6444,2.38726 z"
       id="path9"
       sodipodi:nodetypes="ccc" /><path
       style="display:inline;fill:#d6cab7;fill-opacity:1;stroke-width:0.238862"
       d="m 142.0346,112.65073 c 2.14938,3.252 9.40027,8.79754 10.32662,10.0488 0.38997,0.52675 0.92037,5.74612 0.92037,5.74612 0,0 0.84228,-5.29498 1.18466,-6.51808 -2.08527,-1.80574 -7.60631,-4.74952 -12.43165,-9.27684 z"
       id="path42"
       sodipodi:nodetypes="csccc" /><path
       style="display:inline;fill:#483737;fill-opacity:1;stroke:none;stroke-width:0.79375;stroke-linecap:butt;stroke-linejoin:miter;stroke-dasharray:none;stroke-opacity:1"
       d="m 153.35875,129.76312 c 0,0 -0.51028,-5.40001 -1.04192,-6.49573 -0.66733,-1.37537 -3.18757,-3.50174 -5.75331,-5.82465 4.19934,3.61719 6.60721,4.96074 6.60721,4.96074 z"
       id="path41"
       sodipodi:nodetypes="csccc" /></g><path
     style="fill:#dccd56;fill-opacity:1;stroke-width:0.79375"
     d="m 236.9723,92.496028 c 0,0 0.99224,-6.078518 3.57842,-8.952413 1.73804,-1.931396 7.2702,-2.707876 7.2702,-2.707876 0,0 -1.47756,7.088185 -3.30753,8.840427 -2.17569,2.083257 -7.54109,2.819862 -7.54109,2.819862 z"
     id="path1829"
     sodipodi:nodetypes="cscsc" /><use
     x="0"
     y="0"
     xlink:href="#path1829"
     id="use1830"
     transform="translate(-10.008126,2.7974469)" /><use
     x="0"
     y="0"
     xlink:href="#use1830"
     id="use1831"
     transform="translate(-10.283672,3.1629948)" /><use
     x="0"
     y="0"
     xlink:href="#use1830"
     id="use1832"
     transform="matrix(0.84579475,-0.53350843,-0.53350843,-0.84579475,76.201574,302.0488)" /><use
     x="0"
     y="0"
     xlink:href="#use1832"
     id="use1833"
     transform="translate(10.15861,-2.9362444)" /><use
     x="0"
     y="0"
     xlink:href="#use1833"
     id="use1834"
     transform="translate(9.9572815,-2.973354)" /><path
     style="fill:#dccd56;fill-opacity:1;stroke-width:0.79375"
     d="m 245.98235,91.049237 c 0,0 5.5152,2.265575 7.27428,1.757136 1.75906,-0.508441 5.48479,-5.587975 5.48479,-5.587975 0,0 -5.75467,-2.43463 -7.41307,-1.907632 -1.6584,0.527019 -5.346,5.738471 -5.346,5.738471 z"
     id="path1834" /><g
     inkscape:groupmode="layer"
     id="layer11"
     inkscape:label="wheat" /><g
     inkscape:groupmode="layer"
     id="layer6"
     inkscape:label="brows"
     inkscape:highlight-color="#ffb333"><path
       style="display:inline;fill:#ffb333;fill-opacity:1;stroke-width:0.181793"
       d="m 137.55277,88.319395 c 9.51454,-3.134535 7.29747,-17.822378 7.29747,-17.822378 0,0 -11.83323,6.064453 -7.29747,17.822378 z"
       id="path21"
       sodipodi:nodetypes="ccc" /><path
       style="display:inline;fill:#ffb333;fill-opacity:1;stroke:none;stroke-width:0.141879;stroke-dasharray:none;stroke-opacity:1"
       d="m 138.15072,86.243478 c 0,0 1.43679,-5.850576 6.46767,-14.072296 8.46395,-13.832215 30.82099,-24.18704 30.82099,-24.18704 0,0 -23.14166,9.302102 -32.78595,23.999718 -3.09175,4.711745 -4.50271,14.259618 -4.50271,14.259618 z"
       id="path22"
       sodipodi:nodetypes="cscsc" /><path
       style="display:inline;fill:#ffb333;fill-opacity:1;stroke-width:0.181793"
       d="m 126.48928,94.303215 c -7.19964,6.965395 -19.17155,-1.827882 -19.17155,-1.827882 0,0 10.87177,-7.655545 19.17155,1.827882 z"
       id="path46"
       sodipodi:nodetypes="ccc" /><path
       style="display:inline;fill:#ffb333;fill-opacity:1;stroke:none;stroke-width:0.141879;stroke-dasharray:none;stroke-opacity:1"
       d="m 124.37343,93.867175 c 0,0 -5.84761,-1.448819 -15.46577,-0.818531 -16.181605,1.060398 -35.745651,16.037316 -35.745651,16.037316 0,0 18.996968,-16.161097 36.493621,-17.863982 5.60905,-0.5459 14.7178,2.645197 14.7178,2.645197 z"
       id="path47"
       sodipodi:nodetypes="cscsc" /></g><g
     inkscape:groupmode="layer"
     id="layer5"
     inkscape:label="eye2"
     inkscape:highlight-color="#d8c29e"
     style="display:inline"><path
       style="display:inline;fill:#483737;fill-opacity:1;stroke:none;stroke-width:0.501999;stroke-dasharray:none;stroke-opacity:1"
       d="m 154.26788,104.82891 c 0,0 0.67422,-26.471794 34.24105,-32.501535 17.48228,-3.140411 39.23163,-50.43751 39.23163,-50.43751 0,0 -18.17429,40.915931 -32.18199,55.106744 -14.00771,14.190813 -41.29069,27.832301 -41.29069,27.832301 z"
       id="path6"
       sodipodi:nodetypes="cscsc" /><path
       style="display:inline;fill:#ffdea6;fill-opacity:1;stroke-width:0.501788"
       d="m 154.25411,105.01224 c 23.70528,10.92544 41.28832,-28.119047 41.28832,-28.119047 0,0 -32.72841,-8.460449 -41.28832,28.119047 z"
       id="path4-5-2"
       sodipodi:nodetypes="ccc" /><path
       style="display:inline;fill:#ffb333;fill-opacity:1;stroke-width:0.379375"
       d="m 181.27158,93.306403 c -1.44169,-6.176352 -7.46997,-10.933466 -11.88308,-12.219407 -2.99482,1.15525 -8.60077,7.567475 -9.6816,10.046873 0.741,4.680433 4.69628,9.082041 8.12551,10.645021 8.00676,3.64932 14.53915,-3.760014 13.43917,-8.472487 z"
       id="path4-5-2-0"
       sodipodi:nodetypes="sccss" /><path
       style="fill:#ffd931;fill-opacity:1;stroke:none;stroke-width:0.79375;stroke-linecap:butt;stroke-linejoin:miter;stroke-dasharray:none;stroke-opacity:1"
       d="m 165.61429,98.338669 c 9.06213,9.513551 20.30141,-3.928096 11.13956,-10.361201 -0.92456,-0.07762 -1.7972,0.177351 -2.9678,0.559477 3.80567,5.591879 -2.08923,10.053613 -7.94137,6.781243 -0.28432,0.806369 -0.27449,2.34971 -0.23039,3.020481 z"
       id="path10"
       sodipodi:nodetypes="ccccc" /><path
       style="fill:#403400;fill-opacity:1;stroke:none;stroke-width:0.79375;stroke-linecap:butt;stroke-linejoin:miter;stroke-dasharray:none;stroke-opacity:1"
       d="m 166.38437,86.579672 c 0,0 4.10315,1.050498 7.41585,4.028361 3.65483,3.28542 -3.74658,8.643847 -5.98402,3.649647 -1.01129,-2.257322 -1.43183,-7.678008 -1.43183,-7.678008 z"
       id="path11"
       sodipodi:nodetypes="cssc" /><path
       style="display:inline;fill:#4fff33;fill-opacity:0.324638;stroke-width:0.379375"
       d="m 175.76474,84.7469 c -1.58709,-1.540191 -4.38955,-3.081002 -6.37624,-3.659904 -2.99482,1.15525 -8.60077,7.567475 -9.6816,10.046873 0.28897,1.825242 1.3145,3.990401 2.11156,5.196703 1.20904,-4.790461 5.13386,-1.855842 8.50469,-4.808782 3.37084,-2.952939 1.62702,-5.829797 5.44159,-6.77489 z"
       id="path12"
       sodipodi:nodetypes="cccczc" /><path
       style="display:inline;fill:#c8b79b;fill-opacity:0.695652;stroke-width:0.501788"
       d="m 154.25411,105.01224 c 12.50557,-31.931247 41.28832,-28.119047 41.28832,-28.119047 0,0 -18.45784,-4.348235 -31.16555,8.177609 -4.39691,4.333982 -8.10542,10.688098 -10.12277,19.941438 z"
       id="path16"
       sodipodi:nodetypes="ccsc" /><ellipse
       style="fill:#ffffff;fill-opacity:0.997101;stroke:none;stroke-width:1.4746;stroke-linecap:butt;stroke-linejoin:miter;stroke-dasharray:none;stroke-opacity:1"
       id="path13"
       cx="-25.796307"
       cy="181.08199"
       rx="3.1728752"
       ry="2.1850593"
       transform="matrix(0.22081536,-0.97531563,0.93248178,0.36121701,0,0)" /><ellipse
       style="fill:#ffffff;fill-opacity:0.997101;stroke:none;stroke-width:0.477549;stroke-linecap:butt;stroke-linejoin:miter;stroke-dasharray:none;stroke-opacity:1"
       id="ellipse13"
       cx="-24.302935"
       cy="184.35165"
       rx="1.0365622"
       ry="0.70147324"
       transform="matrix(0.21637276,-0.97631083,0.92983993,0.36796426,0,0)" /><circle
       style="fill:#ffffff;fill-opacity:0.997101;stroke:none;stroke-width:1.33708;stroke-linecap:butt;stroke-linejoin:miter;stroke-dasharray:none;stroke-opacity:1"
       id="path14"
       cx="178.90877"
       cy="92.590996"
       r="0.81789482" /><ellipse
       style="fill:#ffffff;fill-opacity:0.997101;stroke:none;stroke-width:2.11211;stroke-linecap:butt;stroke-linejoin:miter;stroke-dasharray:none;stroke-opacity:1"
       id="path14-0"
       cx="169.85442"
       cy="98.981796"
       rx="1.3243562"
       ry="1.2603996" /><circle
       style="fill:#ffffff;fill-opacity:0.498551;stroke:none;stroke-width:0.857075;stroke-linecap:butt;stroke-linejoin:miter;stroke-dasharray:none;stroke-opacity:1"
       id="path14-0-1"
       cx="178.94844"
       cy="94.765877"
       r="0.52427256" /><circle
       style="fill:#ffffff;fill-opacity:0.498551;stroke:none;stroke-width:1.30365;stroke-linecap:butt;stroke-linejoin:miter;stroke-dasharray:none;stroke-opacity:1"
       id="path14-0-2"
       cx="172.73601"
       cy="99.96888"
       r="0.79744643" /><ellipse
       style="fill:#ffffff;fill-opacity:0.498551;stroke:none;stroke-width:2.85613;stroke-linecap:butt;stroke-linejoin:miter;stroke-dasharray:none;stroke-opacity:1"
       id="path14-0-7"
       cx="62.432327"
       cy="184.10925"
       rx="1.1472539"
       ry="2.660563"
       transform="matrix(0.80218175,-0.59707992,0.68249262,0.73089248,0,0)" /><path
       style="fill:#483737;fill-opacity:1;stroke:none;stroke-width:0.79375;stroke-linecap:butt;stroke-linejoin:miter;stroke-dasharray:none;stroke-opacity:1"
       d="m 176.6058,75.614214 c 0,0 8.67492,-3.23691 11.13497,-9.710729 -0.25895,4.434566 -1.03581,7.380155 -1.03581,7.380155 z"
       id="path15"
       sodipodi:nodetypes="cccc" /><path
       style="display:inline;fill:#483737;fill-opacity:1;stroke:none;stroke-width:0.79375;stroke-linecap:butt;stroke-linejoin:miter;stroke-dasharray:none;stroke-opacity:1"
       d="m 149.49229,83.65884 c 0,0 -1.90962,4.889338 -0.29849,14.066901 -3.26966,-3.006947 -3.24848,-3.687114 -2.45727,-8.480443 0.79121,-4.793329 2.75576,-5.586458 2.75576,-5.586458 z"
       id="path20"
       sodipodi:nodetypes="cczc" /><path
       style="display:inline;fill:#d6cab7;fill-opacity:1;stroke-width:0.238862"
       d="m 150.37409,100.93258 c -4.9781,-14.388585 -0.80085,-17.316261 -0.80085,-17.316261 0,0 -1.90719,0.08856 -3.75844,6.219651 -0.70592,2.337889 1.22254,7.596761 4.55926,11.09662 z"
       id="path19"
       sodipodi:nodetypes="ccscc" /></g><g
     inkscape:groupmode="layer"
     id="layer10"
     inkscape:label="eye1"><path
       style="display:inline;fill:#483737;fill-opacity:1;stroke:none;stroke-width:0.501999;stroke-dasharray:none;stroke-opacity:1"
       d="m 130.00852,117.10502 c 0,0 -22.68691,-13.65703 -45.810409,11.41075 -12.04318,13.05582 -63.61833,5.98095 -63.61833,5.98095 0,0 44.272489,6.66068 63.767671,2.47345 19.495178,-4.18727 45.661068,-19.86515 45.661068,-19.86515 z"
       id="path34"
       sodipodi:nodetypes="cscsc" /><path
       style="display:inline;fill:#ffdea6;fill-opacity:1;stroke-width:0.501788"
       d="m 130.17053,117.19192 c -3.52511,25.86269 -45.901623,19.70907 -45.901623,19.70907 0,0 10.452851,-32.14757 45.901623,-19.70907 z"
       id="path35"
       sodipodi:nodetypes="ccc" /><path
       style="display:inline;fill:#ffb333;fill-opacity:1;stroke-width:0.379375"
       d="m 119.5693,129.86833 c 1.51216,-6.15949 -1.29567,-12.44444 -4.6477,-15.58976 -3.19328,-0.32649 -10.20287,1.15747 -13.54834,3.17592 -1.459312,4.50843 0.0276,10.93369 2.37698,13.88035 5.48545,6.88007 14.66531,3.23308 15.81906,-1.46651 z"
       id="path36"
       sodipodi:nodetypes="sccss" /><path
       style="fill:#ffd931;fill-opacity:1;stroke:none;stroke-width:0.79375;stroke-linecap:butt;stroke-linejoin:miter;stroke-dasharray:none;stroke-opacity:1"
       d="m 103.33088,127.2631 c 3.77025,12.58628 19.87874,5.69311 14.62432,-4.19199 -0.78912,-0.48796 -1.68261,-0.6559 -2.89934,-0.84543 0.86018,6.70913 -6.41627,8.01695 -10.15152,2.44886 -0.61871,0.59014 -1.30898,1.97055 -1.57346,2.58856 z"
       id="path37"
       sodipodi:nodetypes="ccccc" /><path
       style="fill:#403400;fill-opacity:1;stroke:none;stroke-width:0.79375;stroke-linecap:butt;stroke-linejoin:miter;stroke-dasharray:none;stroke-opacity:1"
       d="m 108.08016,117.609 c 0,0 -1.1329,4.08116 -0.20084,8.43694 1.02836,4.80567 9.36143,1.05683 6.14535,-3.37094 -1.45364,-2.00128 -5.94451,-5.066 -5.94451,-5.066 z"
       id="path38"
       sodipodi:nodetypes="cssc" /><path
       style="display:inline;fill:#4fff33;fill-opacity:0.324638;stroke-width:0.379375"
       d="m 118.53661,119.7429 c -0.71736,-2.09198 -2.12888,-4.04837 -3.6379,-5.46433 -3.19328,-0.32649 -11.46174,1.45502 -13.54835,3.17592 -0.56911,1.75815 -0.65836,4.86254 -0.49412,6.29902 3.24767,-3.7233 5.41765,0.67074 9.76038,-0.43517 4.34273,-1.10591 4.09107,-4.46058 7.91999,-3.57544 z"
       id="path39"
       sodipodi:nodetypes="cccczc" /><path
       style="display:inline;fill:#c8b79b;fill-opacity:0.695652;stroke-width:0.501788"
       d="m 130.17053,117.19192 c -33.649084,-6.61306 -45.901623,19.61752 -45.901623,19.61752 0,0 6.114669,-17.81128 23.507123,-21.79692 6.01783,-1.37904 13.50673,-1.09195 22.3945,2.1794 z"
       id="path40"
       sodipodi:nodetypes="ccsc" /><ellipse
       style="fill:#ffffff;fill-opacity:0.997101;stroke:none;stroke-width:1.4746;stroke-linecap:butt;stroke-linejoin:miter;stroke-dasharray:none;stroke-opacity:1"
       id="ellipse40"
       cx="116.08669"
       cy="126.89326"
       rx="3.1728752"
       ry="2.1850593"
       transform="matrix(-0.20102286,0.97958655,0.9984614,0.05545123,0,0)" /><ellipse
       style="fill:#ffffff;fill-opacity:0.997101;stroke:none;stroke-width:0.477549;stroke-linecap:butt;stroke-linejoin:miter;stroke-dasharray:none;stroke-opacity:1"
       id="ellipse41"
       cx="122.24509"
       cy="127.51858"
       rx="1.0365622"
       ry="0.70147324"
       transform="matrix(-0.17392267,0.98475931,0.99987055,0.01608993,0,0)" /><circle
       style="fill:#ffffff;fill-opacity:0.997101;stroke:none;stroke-width:1.33708;stroke-linecap:butt;stroke-linejoin:miter;stroke-dasharray:none;stroke-opacity:1"
       id="circle41"
       cx="163.0603"
       cy="60.91082"
       r="0.81789482"
       transform="rotate(26.932112)" /><ellipse
       style="fill:#ffffff;fill-opacity:0.997101;stroke:none;stroke-width:2.11211;stroke-linecap:butt;stroke-linejoin:miter;stroke-dasharray:none;stroke-opacity:1"
       id="ellipse42"
       cx="154.00595"
       cy="67.301613"
       rx="1.3243562"
       ry="1.2603996"
       transform="rotate(26.932112)" /><circle
       style="fill:#ffffff;fill-opacity:0.498551;stroke:none;stroke-width:0.857075;stroke-linecap:butt;stroke-linejoin:miter;stroke-dasharray:none;stroke-opacity:1"
       id="circle42"
       cx="163.09998"
       cy="63.085701"
       r="0.52427256"
       transform="rotate(26.932112)" /><circle
       style="fill:#ffffff;fill-opacity:0.498551;stroke:none;stroke-width:1.30365;stroke-linecap:butt;stroke-linejoin:miter;stroke-dasharray:none;stroke-opacity:1"
       id="circle43"
       cx="156.88754"
       cy="68.288704"
       r="0.79744643"
       transform="rotate(26.932112)" /><ellipse
       style="fill:#ffffff;fill-opacity:0.498551;stroke:none;stroke-width:2.85613;stroke-linecap:butt;stroke-linejoin:miter;stroke-dasharray:none;stroke-opacity:1"
       id="ellipse43"
       cx="72.532776"
       cy="149.01601"
       rx="1.1472539"
       ry="2.660563"
       transform="matrix(0.98561825,-0.16898716,0.27742566,0.96074711,0,0)" /><path
       style="fill:#483737;fill-opacity:1;stroke:none;stroke-width:0.79375;stroke-linecap:butt;stroke-linejoin:miter;stroke-dasharray:none;stroke-opacity:1"
       d="m 93.366616,120.51841 c 0,0 -7.391595,5.30175 -14.173196,3.89743 3.878981,2.16471 6.780574,3.09248 6.780574,3.09248 z"
       id="path43"
       sodipodi:nodetypes="cccc" /><path
       style="display:inline;fill:#483737;fill-opacity:1;stroke:none;stroke-width:0.79375;stroke-linecap:butt;stroke-linejoin:miter;stroke-dasharray:none;stroke-opacity:1"
       d="m 114.72139,101.70105 c 0,0 5.3781,0.77883 12.02354,7.30767 -0.77881,-4.37332 -1.90049,-5.49723 -4.59869,-7.20114 -2.69819,-1.70391 -7.42485,-0.10653 -7.42485,-0.10653 z"
       id="path44"
       sodipodi:nodetypes="cczc" /><path
       style="display:inline;fill:#d6cab7;fill-opacity:1;stroke-width:0.238862"
       d="m 128.81507,111.72741 c -9.17084,-12.723757 -14.17303,-9.98094 -14.17303,-9.98094 0,0 0.50686,-2.589869 7.98178,-0.78176 2.3737,0.57415 5.03285,6.06794 6.19129,10.76271 z"
       id="path45"
       sodipodi:nodetypes="ccscc" /></g><g
     inkscape:groupmode="layer"
     id="layer7"
     inkscape:label="hand"><path
       style="display:inline;fill:#a96c00;fill-opacity:1;stroke-width:0.24604"
       d="m 237.1231,168.34195 c -5.44944,-26.53012 -50.19002,-31.96968 -50.19002,-31.96968 0,0 16.73566,28.25404 41.95741,31.89731 z"
       id="path23"
       sodipodi:nodetypes="cccc" /><path
       style="display:inline;fill:#b67400;fill-opacity:1;stroke-width:0.26384"
       d="M 235.10308,163.27755 C 221.64272,137.54156 166.99365,141.501 166.99365,141.501 c 0,0 27.93979,28.61708 55.01522,24.9162 z"
       id="path24"
       sodipodi:nodetypes="cccc" /><path
       style="display:inline;fill:#ca7f00;fill-opacity:1;stroke-width:0.360488"
       d="m 231.9412,159.23303 c -28.05968,-28.05968 -89.43393,0.35277 -89.43393,0.35277 0,0 48.11537,25.90361 81.90676,10.02199 -21.99982,32.72258 7.83722,81.00182 7.83722,81.00182 0,0 24.74709,-66.31945 -0.31003,-91.37658 z"
       id="path2"
       sodipodi:nodetypes="scccss" /></g><g
     inkscape:label="grain parts"
     inkscape:groupmode="layer"
     id="layer1"
     style="display:inline;fill:#ffa714;fill-opacity:1"
     inkscape:highlight-color="#ffb207"><path
       style="fill:#ffb333;fill-opacity:1;stroke-width:0.218822"
       d="m 202.04649,192.67775 c -13.05259,-20.245 -43.25248,-9.04618 -43.25248,-9.04618 0,0 14.1701,19.21238 37.45669,14.23719 -15.40336,16.99416 -3.61669,38.26143 -3.61669,38.26143 0,0 21.06836,-25.37377 9.41245,-43.45244 z"
       id="use3"
       sodipodi:nodetypes="scccss" /><path
       style="fill:#ffb333;fill-opacity:1;stroke-width:0.168111"
       d="m 175.52001,211.8811 c -8.39267,-16.49292 -32.34875,-10.2953 -32.34875,-10.2953 0,0 7.95567,16.16915 27.51343,13.80944 -13.10084,11.78358 -5.75556,28.95884 -5.75556,28.95884 0,0 18.08552,-17.74488 10.59094,-32.47295 z"
       id="use4"
       sodipodi:nodetypes="scccss" /><path
       style="fill:#ffb333;fill-opacity:1;stroke-width:0.13846"
       d="m 149.48756,227.2528 c -2.43847,-15.04545 -22.78614,-16.2041 -22.78614,-16.2041 0,0 4.39227,15.24431 18.11043,17.74538 -13.23689,5.95058 -11.79143,21.268 -11.79143,21.268 0,0 18.64468,-9.3738 16.46717,-22.80927 z"
       id="use5"
       sodipodi:nodetypes="scccss" /><path
       style="display:inline;fill:#ffb333;fill-opacity:1;stroke-width:0.121105"
       d="m 123.84848,229.43356 c 0.0458,-13.33125 -17.34665,-17.23882 -17.34665,-17.23882 0,0 0.9293,13.74453 13.0917,17.90063 -12.27253,3.24319 -13.21416,16.6672 -13.21416,16.6672 0,0 17.42813,-5.42431 17.46908,-17.32902 z"
       id="use3-5"
       sodipodi:nodetypes="scccss" /><path
       style="display:inline;fill:#ffb333;fill-opacity:1;stroke-width:0.109817"
       d="m 99.937455,228.26698 c 4.517855,-11.21279 -8.817916,-20.3478 -8.817916,-20.3478 0,0 -2.844321,11.34618 5.011826,19.47555 -11.42619,-1.392 -16.729744,9.59794 -16.729744,9.59794 0,0 16.501333,1.28724 20.535806,-8.72572 z"
       id="use3-5-1"
       sodipodi:nodetypes="scccss" /><path
       style="fill:#ffb333;fill-opacity:1;stroke-width:0.271264"
       d="m 81.703653,219.33659 c -14.935265,-0.61322 -17.751417,-22.5985 -17.751417,-22.5985 0,0 19.459526,3.87133 17.751417,22.5985 z"
       id="path4"
       sodipodi:nodetypes="ccc" /></g><g
     inkscape:label="Layer 1"
     inkscape:groupmode="layer"
     id="g3"
     style="display:none"
     inkscape:highlight-color="#ee3b3b"><g
       id="g7"
       transform="matrix(1.3567551,0,0,1.3567551,-29.177852,-60.833319)"><rect
         style="display:inline;fill:#ff0000;stroke-width:0.537007"
         id="rect5"
         width="0.62853193"
         height="127.7225"
         x="-192.6575"
         y="101.48031"
         transform="scale(-1,1)" /><rect
         style="display:inline;fill:#ff0000;stroke-width:0.325943"
         id="rect5-2"
         width="0.45114577"
         height="65.554329"
         x="162.24506"
         y="-192.58522"
         transform="rotate(90)" /><rect
         style="display:inline;fill:#ff0000;stroke-width:0.553551"
         id="rect6"
         width="0.45114577"
         height="189.07481"
         x="229.05489"
         y="-214.42992"
         transform="rotate(90)" /></g></g><path
     style="fill:#c3b228;fill-opacity:1;stroke-width:0.79375"
     d="m 179.73971,138.2092 c 11.26445,-41.691391 60.82743,-46.79887 71.70345,-48.611535 -11.21564,5.37363 -35.87942,8.68219 -53.25582,21.822365 -13.60997,10.29197 -17.81306,26.37266 -17.81306,26.37266 z"
     id="path1835"
     sodipodi:nodetypes="ccscc" /></svg>
